<svg width="24" height="25" viewBox="0 0 24 25" fill="none" xmlns="http://www.w3.org/2000/svg">
<path d="M15.5711 18.8521C17.9393 18.5712 20.2229 18.0145 22.3889 17.2148C20.5929 15.2213 19.4998 12.582 19.4998 9.6875V8.81148C19.4999 8.79101 19.5 8.77051 19.5 8.75C19.5 4.60786 16.1421 1.25 12 1.25C7.85786 1.25 4.5 4.60786 4.5 8.75L4.49975 9.6875C4.49975 12.582 3.40659 15.2213 1.6106 17.2148C3.77675 18.0145 6.06054 18.5713 8.42892 18.8522M15.5711 18.8521C14.4 18.991 13.2082 19.0625 11.9998 19.0625C10.7915 19.0625 9.59985 18.9911 8.42892 18.8522M15.5711 18.8521C15.6873 19.2139 15.75 19.5996 15.75 20C15.75 22.0711 14.0711 23.75 12 23.75C9.92893 23.75 8.25 22.0711 8.25 20C8.25 19.5996 8.31274 19.2139 8.42892 18.8522" stroke="white" stroke-width="1.5" stroke-linecap="round" stroke-linejoin="round"/>
</svg>
